<svg width="100%" height="100px" viewBox="0 0 1280 140" preserveAspectRatio="none" xmlns="http://www.w3.org/2000/svg"><g fill="#FFFFFF"><path d="M156 35.41l95.46 34.73 120.04.25 71.5 33.24 90.09-3.89L640 137.25l102.39-37.06 85.55 10.61 88.11-7.17L992 65.08l73.21 5.31L1132 48.35l77-.42L1280 0H0l64.8 38.57 91.2-3.16z" fill-opacity=".5"/><path d="M156 28.32l95.46 27.79 120.04.2L443 82.9l90.09-3.11L640 109.8l102.39-29.65 85.55 8.49 88.11-5.74L992 52.07l73.21 4.24L1132 38.68l77-.34L1280 0H0l64.8 30.86 91.2-2.54z"/></g></svg>